<svg xmlns="http://www.w3.org/2000/svg" width="200" height="25" fill="none" viewBox="0 0 200 25">
  <g clip-path="url(#a)">
    <path fill="#fff" d="M190.688.143 190.627 0h-5.864l9.21 23.676.051.143H200L190.688.143ZM174.919.051l-7.203 23.768h5.484l5.618-17.571 6.672.02L183.065 0l-8.146.051ZM5.382 11.374l-.05-.06V6.756L8.115 3.78h17.109l8.278 8.134v-7.99L29.39.051 3.837 0 0 3.985v5.198l5.382 5.606v-3.415Z"/>
    <path fill="#fff" d="M28.222 17.133h-.072l.01.133-2.977 2.72H8.063L0 11.233v8.602l4.103 3.985H29.39l4.164-4.036v-5.728L28.223 8.98v8.154Zm62.502-5.759-.051-.05V6.756l2.783-2.976h17.109l8.268 8.134v-7.99L114.73.051 89.179 0l-3.837 3.985v5.198l5.382 5.606v-3.415Z"/>
    <path fill="#fff" d="M113.564 17.133h-.072l.01.133-2.978 2.72H93.405l-8.063-8.754v8.602l4.103 3.985h25.285l4.165-4.036v-5.728l-5.331-5.076v8.154ZM63.392 0 60.18 16.47l-.01.041 1.3 7.257 2.21.051 3.274-17.592h4.011v17.776h5.373V4.006L72.653 0h-9.26ZM45.72.061l-3.663 4.097v20.048l.348-.346c.46-.03 3.172 0 4.86.03h.236V6.38h4.072l3.009 17.612h5.423L55.544.062H45.72ZM150.913 0l5.536 4.26v12.944l-4.011 2.773h-18.501V3.924h19.483L148.386.01H128.36v23.81h29.563l3.98-3.924V3.924L156.859 0h-5.946Z"/>
  </g>
  <defs>
    <clipPath id="a">
      <path fill="#fff" d="M0 0h200v24.206H0z"/>
    </clipPath>
  </defs>
</svg>
